# xmcd CD database file
#
# Track frame offsets:
#	150
#	25203
#	46773
#
# Disc length: 891 seconds
#
# Revision: 0
# Processed by: cddbd v1.5.1PL2 Copyright (c) Steve Scherf et al.
# Submitted via: CDex 1.51
#
DISCID=19037903
DTITLE=あかべぇそふとつぅ - 音車祭
DYEAR=2005
DGENRE=Game
TTITLE0=紅空恋歌
TTITLE1=そらの隙間
TTITLE2=祝福の大地、暁光の世界
EXTD=YEAR: 2005
EXTT0=
EXTT1=
EXTT2=
PLAYORDER=
